<svg xmlns="http://www.w3.org/2000/svg" width="40" height="40" viewBox="0 0 40 40" fill="none">
<ellipse opacity="0.2" cx="20" cy="36" rx="19" ry="1" fill="#6B7184" />
<rect width="5" height="13" rx="1.81818" transform="matrix(-0.707107 -0.707107 -0.707107 0.707107 15 28)" fill="#2CD4C7" />
<rect x="-2.5" y="2.5" width="25" height="25" rx="12.5" transform="matrix(-1 0 0 1 31 3)" stroke="#22C7B8" stroke-width="5" />
<rect width="6.73797" height="6.73797" rx="3.36898" transform="matrix(-1 0 0 1 24.2783 12.7275)" fill="#008D40" />
<path d="M22.3525 21.3906C24.8948 21.3906 27.1075 22.7992 28.2549 24.8779C26.4325 26.7995 23.8573 28 21 28C18.0833 28 15.4588 26.7508 13.6309 24.7588C14.7961 22.7458 16.9716 21.3907 19.4648 21.3906H22.3525Z" fill="#008D40" />
<path opacity="0.15" d="M13.7568 4.8623C13.2657 6.3184 13 7.87821 13 9.5C13 17.5081 19.4919 24 27.5 24C30.4905 24 33.2687 23.0935 35.5771 21.542C33.9853 28.1166 28.0639 33 21 33C12.7157 33 6 26.2843 6 18C6 12.3427 9.13225 7.4174 13.7568 4.8623Z" fill="#22C7B8" />
</svg>