<svg width="40" height="40" viewBox="0 0 40 40" fill="none" xmlns="http://www.w3.org/2000/svg">
<ellipse opacity="0.2" cx="20" cy="36" rx="19" ry="1" fill="#6B7184"/>
<path d="M11.7312 11.394C11.5634 13.1834 11.4457 16.3501 12.5024 17.6981C12.5024 17.6981 12.005 14.2193 16.4645 9.85475C18.2601 8.09773 18.6751 5.70795 18.0481 3.91561C17.692 2.90025 17.0414 2.06147 16.4763 1.4758C16.1466 1.13145 16.3997 0.56344 16.8795 0.584041C19.7819 0.713537 24.4857 1.51994 26.4844 6.53495C27.3616 8.73638 27.4264 11.0114 27.0084 13.3246C26.7435 14.8021 25.8015 18.0865 27.9503 18.4897C29.4839 18.7782 30.2257 17.5597 30.5583 16.6827C30.6967 16.3178 31.1765 16.2265 31.4355 16.5179C34.0259 19.4639 34.2466 22.9338 33.7109 25.921C32.6748 31.6954 26.8259 35.8981 21.0153 35.8981C13.7564 35.8981 7.97815 31.7454 6.47987 24.2288C5.87644 21.1944 6.18257 15.1906 10.8629 10.9525C11.2102 10.6347 11.7783 10.9172 11.7312 11.394Z" fill="url(#paint0_radial_135_1723)"/>
<path d="M22.9548 22.2017C20.7075 19.2281 21.7137 15.8351 22.265 14.483C22.3392 14.3051 22.1414 14.1374 21.9856 14.2467C21.019 14.9227 19.0387 16.5137 18.1166 18.7528C16.8681 21.7798 16.9571 23.2615 17.6963 25.0711C18.1413 26.1614 17.6246 26.3927 17.365 26.4333C17.1128 26.474 16.8804 26.3012 16.695 26.1207C16.1616 25.5943 15.7815 24.9254 15.5973 24.1891C15.5578 24.0316 15.3575 23.9884 15.2661 24.118C14.5738 25.1016 14.2154 26.6798 14.1981 27.7956C14.1437 31.2444 16.9151 34.0401 20.2674 34.0401C24.4925 34.0401 27.5705 29.2366 25.1427 25.221C24.4381 24.0519 23.7756 23.2869 22.9548 22.2017Z" fill="url(#paint1_radial_135_1723)"/>
<path d="M32.9022 9.2335L32.6865 9.72832C32.5285 10.0906 32.0273 10.0906 31.8696 9.72832L31.6539 9.2335C31.2695 8.35148 30.5767 7.64921 29.7126 7.26498L29.0479 6.9696C28.6885 6.80978 28.6885 6.28702 29.0479 6.12743L29.6755 5.84853C30.562 5.45446 31.267 4.72609 31.645 3.81407L31.8664 3.27941C32.0207 2.90686 32.5356 2.90686 32.6899 3.27941L32.9116 3.81407C33.2896 4.72609 33.9945 5.45446 34.8811 5.84853L35.5086 6.12743C35.8681 6.28725 35.8681 6.81001 35.5086 6.9696L34.844 7.26498C33.9792 7.64898 33.2866 8.35148 32.9022 9.2335Z" fill="#9E4BEF"/>
<defs>
<radialGradient id="paint0_radial_135_1723" cx="0" cy="0" r="1" gradientTransform="matrix(-20.7778 -0.0901606 -0.148146 34.0865 19.5775 35.9896)" gradientUnits="userSpaceOnUse">
<stop offset="0.314" stop-color="#E039AF"/>
<stop offset="0.662" stop-color="#9F4CEE"/>
<stop offset="0.972" stop-color="#7F22FE"/>
</radialGradient>
<radialGradient id="paint1_radial_135_1723" cx="0" cy="0" r="1" gradientTransform="matrix(-0.184426 18.7699 13.7407 0.142665 20.4998 16.2642)" gradientUnits="userSpaceOnUse">
<stop offset="0.214" stop-color="#FFF176"/>
<stop offset="0.328" stop-color="#FFF27D"/>
<stop offset="0.487" stop-color="#FFF48F"/>
<stop offset="0.672" stop-color="#FFF7AD"/>
<stop offset="0.793" stop-color="#FFF9C4"/>
<stop offset="0.822" stop-color="#FFF8BD" stop-opacity="0.804"/>
<stop offset="0.863" stop-color="#FFF6AB" stop-opacity="0.529"/>
<stop offset="0.91" stop-color="#FFF38D" stop-opacity="0.209"/>
<stop offset="0.941" stop-color="#FFF176" stop-opacity="0"/>
</radialGradient>
</defs>
</svg>
