<svg width="40" height="40" viewBox="0 0 40 40" fill="none" xmlns="http://www.w3.org/2000/svg">
<ellipse opacity="0.2" cx="20" cy="36" rx="19" ry="1" fill="#6B7184"/>
<path d="M4 15C4 12.7909 5.79086 11 8 11H14V25H8C5.79086 25 4 23.2091 4 21V15Z" fill="#2B7CD4"/>
<path d="M4 15C4 12.7909 5.79086 11 8 11H14V18H4V15Z" fill="#76B6FB"/>
<circle cx="30" cy="18" r="5" fill="#2B7CD4"/>
<path d="M14 11L27.1168 4.54407C28.4458 3.88994 30 4.85721 30 6.3385V29.0454C30 30.4933 28.5093 31.4614 27.1866 30.8725L14 25.0022V11Z" fill="#80B9FF"/>
<path d="M30 13C32.7614 13 35 15.2386 35 18H25C25 15.2386 27.2386 13 30 13Z" fill="#76B6FB"/>
<path d="M14 11L27.1056 4.44721C28.4354 3.78231 30 4.7493 30 6.23607V18H14V11Z" fill="#B5D6FF"/>
<path d="M8 25H14V35C14 35.5523 13.5523 36 13 36H9C8.44772 36 8 35.5523 8 35V25Z" fill="#2B7CD4"/>
</svg>
