<svg width="40" height="40" viewBox="0 0 40 40" fill="none" xmlns="http://www.w3.org/2000/svg">
<ellipse opacity="0.2" cx="20" cy="36" rx="19" ry="1" fill="#6B7184"/>
<path d="M6 17H24L19 24H2.94319C2.12982 24 1.65669 23.0806 2.12946 22.4188L6 17Z" fill="#A7B5CD"/>
<path d="M18.1991 11.7774C18.1991 11.3487 18.3553 11.0073 18.6675 10.7532C18.9798 10.4992 19.4112 10.3721 19.9616 10.3721C20.5121 10.3721 20.9434 10.4992 21.2557 10.7532C21.568 11.0073 21.7241 11.3487 21.7241 11.7774C21.7241 12.2008 21.568 12.5395 21.2557 12.7936C20.9487 13.0476 20.5174 13.1747 19.9616 13.1747C19.4112 13.1747 18.9798 13.0476 18.6675 12.7936C18.3553 12.5395 18.1991 12.2008 18.1991 11.7774ZM16.3096 5.37843C16.2779 4.79094 16.3626 4.28283 16.5637 3.85412C16.7648 3.42541 17.0506 3.07609 17.4211 2.80616C17.7969 2.53093 18.2309 2.32716 18.7231 2.19484C19.2153 2.05723 19.7287 1.98843 20.2633 1.98843C20.9831 1.98843 21.6368 2.10487 22.2243 2.33775C22.8118 2.56534 23.2802 2.90936 23.6295 3.36983C23.9788 3.8303 24.1535 4.40457 24.1535 5.09263C24.1535 5.57427 24.0714 5.97387 23.9074 6.29143C23.7486 6.60371 23.5448 6.86305 23.2961 7.06947C23.0473 7.27589 22.7906 7.46113 22.526 7.62521C22.2137 7.81575 21.9596 7.98512 21.7638 8.13331C21.568 8.27622 21.4251 8.43235 21.3351 8.60172C21.2451 8.77109 21.2001 8.99339 21.2001 9.26861V9.60205H18.5802L18.5564 9.37976C18.5035 8.95634 18.5141 8.5779 18.5882 8.24446C18.6623 7.90572 18.8025 7.60139 19.0089 7.33146C19.2206 7.06153 19.5012 6.826 19.8505 6.62488C20.2263 6.40787 20.5253 6.2041 20.7476 6.01356C20.9752 5.81773 21.089 5.56103 21.089 5.24347C21.089 5.02647 21.0413 4.84916 20.9461 4.71155C20.8508 4.56864 20.7238 4.46279 20.565 4.39398C20.4115 4.32518 20.2474 4.29077 20.0728 4.29077C19.914 4.29077 19.7711 4.31988 19.6441 4.3781C19.5223 4.43103 19.4165 4.50778 19.3265 4.60834C19.2365 4.70361 19.1677 4.8174 19.1201 4.94972C19.0777 5.07675 19.0539 5.21965 19.0486 5.37843H16.3096Z" fill="#8D9EBD"/>
<path d="M15 17H6V32C6 34.2091 7.79086 36 10 36H15V17Z" fill="#575C72"/>
<path d="M12.5909 12.5259C12.4165 12.202 12.0783 12 11.7104 12H4.71606C3.94984 12 3.46828 12.8264 3.84604 13.493L5.83333 17H15L12.5909 12.5259Z" fill="#8093B5"/>
<path d="M26.5585 12.5053C26.7363 12.1929 27.0681 12 27.4276 12H35.2801C36.0472 12 36.5286 12.8281 36.1492 13.4947L34.1538 17H24L26.5585 12.5053Z" fill="#8093B5"/>
<path d="M34 17H15V36H30C32.2091 36 34 34.2091 34 32V17Z" fill="#A7B5CD"/>
<path d="M33.8571 17H15L19.8432 23.5921C20.0316 23.8485 20.3308 24 20.649 24H37.0244C37.8439 24 38.3155 23.0683 37.8303 22.4079L33.8571 17Z" fill="#D6E2F6"/>
</svg>
