<svg width="40" height="40" viewBox="0 0 40 40" fill="none" xmlns="http://www.w3.org/2000/svg">
  <!-- 바닥 그림자 (모든 아이콘 공통) -->
  <ellipse opacity="0.2" cx="20" cy="36" rx="19" ry="1" fill="#6B7184"></ellipse>

  <!-- 왼쪽 사람 얼굴 -->
  <rect x="8" y="14" width="8" height="8" rx="4" fill="#7346ED"></rect>
  <!-- 오른쪽 사람 얼굴 -->
  <rect x="24" y="14" width="8" height="8" rx="4" fill="#2B7CD4"></rect>

  <!-- 왼쪽 사람 몸통 -->
  <path d="M9 27C9 24.7909 10.7909 23 13 23H15C17.2091 23 19 24.7909 19 27V29H9V27Z" fill="#9672F6"></path>
  <!-- 오른쪽 사람 몸통 -->
  <path d="M21 27C21 24.7909 22.7909 23 25 23H27C29.2091 23 31 24.7909 31 27V29H21V27Z" fill="#76B6FB"></path>

  <!-- 가운데 말풍선 (함께 대화/모임) -->
  <path d="M18 12C18 9.79086 19.7909 8 22 8H24.5C26.7091 8 28.5 9.79086 28.5 12C28.5 13.4902 27.7121 14.8009 26.5 15.5L24.5 17.5L22.5 15.5C20.6548 15.5 18 14.2091 18 12Z" fill="#FFB84D"></path>

  <!-- 말풍선 안 작은 버블 (대화 느낌) -->
  <circle cx="22" cy="11.5" r="1.2" fill="white"></circle>
  <circle cx="24.8" cy="11.5" r="1.2" fill="white"></circle>
  <circle cx="23.4" cy="13.5" r="0.9" fill="white"></circle>
</svg>
