<svg width="40" height="40" viewBox="0 0 40 40" fill="none" xmlns="http://www.w3.org/2000/svg">
<ellipse opacity="0.2" cx="20" cy="36" rx="19" ry="1" fill="#6B7184"/>
<rect x="17.0557" y="19.5918" width="5" height="23.8296" rx="2" transform="rotate(-45 17.0557 19.5918)" fill="#007C55"/>
<rect x="18.5996" y="5.39941" width="11" height="20" transform="rotate(45 18.5996 5.39941)" fill="#27B26A"/>
<rect x="6.31885" y="14.0435" width="15" height="7" rx="2" transform="rotate(45 6.31885 14.0435)" fill="#32E589"/>
<rect x="20.3999" y="1" width="15" height="7" rx="2" transform="rotate(45 20.3999 1)" fill="#32E589"/>
<path d="M3 34C3 32.8954 3.89543 32 5 32H17C18.1046 32 19 32.8954 19 34V35H3V34Z" fill="#FDC700"/>
<path d="M3 34C3 33.4477 3.44772 33 4 33H18C18.5523 33 19 33.4477 19 34V36H3V34Z" fill="#FDC700"/>
</svg>
