<svg width="40" height="40" viewBox="0 0 40 40" fill="none" xmlns="http://www.w3.org/2000/svg">
<ellipse opacity="0.2" cx="20" cy="35" rx="19" ry="1" fill="#6B7184"/>
<path d="M11 14.5352H30C31.9136 14.5352 33.4648 16.0864 33.4648 18V32C33.4648 33.9136 31.9136 35.4648 30 35.4648H11C9.08643 35.4648 7.53516 33.9136 7.53516 32V18C7.53516 16.0864 9.08643 14.5352 11 14.5352Z" fill="#A1C8ED" stroke="#85B8E8" stroke-width="1.07036"/>
<path d="M4 15H15C15 17.7614 12.7614 20 10 20H9C6.23858 20 4 17.7614 4 15Z" fill="#5793F3"/>
<path d="M15 15H26C26 17.7614 23.7614 20 21 20H20C17.2386 20 15 17.7614 15 15Z" fill="#F0F0F0"/>
<path d="M26 15H37C37 17.7614 34.7614 20 32 20H31C28.2386 20 26 17.7614 26 15Z" fill="#5793F3"/>
<path d="M33 5L37 15H25.9998L25 5H33Z" fill="#8ABBFE"/>
<path d="M4 15H15.1946L17 5H9.2115L4 15Z" fill="#8ABBFE"/>
<path d="M15 15H26L25 5H16.7743L15 15Z" fill="#FCFCFE"/>
<path d="M16 26C16 25.4477 16.4477 25 17 25H24C24.5523 25 25 25.4477 25 26V35H16V26Z" fill="#5793F3"/>
</svg>
