<svg width="40" height="40" viewBox="0 0 40 40" fill="none" xmlns="http://www.w3.org/2000/svg">
<ellipse opacity="0.2" cx="20" cy="36" rx="19" ry="1" fill="#6B7184"/>
<path d="M7.85693 14.857C7.85693 12.3323 9.90362 10.2856 12.4283 10.2856H28.9997C31.5244 10.2856 33.5711 12.3323 33.5711 14.857V28.857C33.5711 31.3817 31.5244 33.4284 28.9997 33.4284H12.4283C9.90362 33.4284 7.85693 31.3817 7.85693 28.857V14.857Z" fill="#224683"/>
<path d="M9 21.5714C9 19.0467 11.0467 17 13.5714 17H37V29C37 32.3137 34.3137 35 31 35H9V21.5714Z" fill="#577FC4"/>
<path d="M18.4287 4.85742H23.5713C24.9914 4.85742 26.1426 6.00856 26.1426 7.42871V10.1426H15.8574V7.42871C15.8574 6.00856 17.0086 4.85742 18.4287 4.85742Z" stroke="black" stroke-width="1.71428"/>
<path d="M9 9H31C34.3137 9 37 11.6863 37 15V17H9V9Z" fill="#7CB0FF"/>
<path d="M14 17H37L27.4069 22.596C25.9288 23.4582 24.0929 23.4227 22.6492 22.504L14 17Z" fill="#7CB0FF"/>
<g filter="url(#filter0_d_135_1693)">
<rect x="23" y="20" width="4" height="6" rx="2" fill="white" fill-opacity="0.9" shape-rendering="crispEdges"/>
</g>
<rect x="4" y="9" width="10" height="26" rx="5" fill="#22519C"/>
<defs>
<filter id="filter0_d_135_1693" x="22.011" y="19.011" width="5.97802" height="7.97802" filterUnits="userSpaceOnUse" color-interpolation-filters="sRGB">
<feFlood flood-opacity="0" result="BackgroundImageFix"/>
<feColorMatrix in="SourceAlpha" type="matrix" values="0 0 0 0 0 0 0 0 0 0 0 0 0 0 0 0 0 0 127 0" result="hardAlpha"/>
<feOffset/>
<feGaussianBlur stdDeviation="0.494506"/>
<feComposite in2="hardAlpha" operator="out"/>
<feColorMatrix type="matrix" values="0 0 0 0 0 0 0 0 0 0 0 0 0 0 0 0 0 0 0.25 0"/>
<feBlend mode="normal" in2="BackgroundImageFix" result="effect1_dropShadow_135_1693"/>
<feBlend mode="normal" in="SourceGraphic" in2="effect1_dropShadow_135_1693" result="shape"/>
</filter>
</defs>
</svg>
