<svg width="40" height="40" viewBox="0 0 40 40" fill="none" xmlns="http://www.w3.org/2000/svg">
<ellipse opacity="0.2" cx="20" cy="36" rx="19" ry="1" fill="#6B7184"/>
<path d="M14 20H6V32C6 33.6569 7.34315 35 9 35H14V20Z" fill="#E27653"/>
<path d="M11.2725 15.4831C11.0914 15.1833 10.7667 15 10.4164 15H4.76619C3.9889 15 3.50878 15.848 3.9087 16.5145L6 20H14L11.2725 15.4831Z" fill="#E27653"/>
<path d="M29.1106 15.4368C29.2968 15.1635 29.6062 15 29.9369 15H35.2338C36.0111 15 36.4912 15.848 36.0913 16.5145L34 20H26L29.1106 15.4368Z" fill="#E27653"/>
<path d="M14 35H31C32.6569 35 34 33.6569 34 32V20H14V35Z" fill="#FFAB73"/>
<path d="M18.4152 15.2512C18.4152 14.7147 18.6141 14.2874 19.0119 13.9695C19.4096 13.6515 19.9591 13.4925 20.6603 13.4925C21.3615 13.4925 21.9109 13.6515 22.3087 13.9695C22.7065 14.2874 22.9054 14.7147 22.9054 15.2512C22.9054 15.7812 22.7065 16.2051 22.3087 16.5231C21.9177 16.841 21.3682 17 20.6603 17C19.9591 17 19.4096 16.841 19.0119 16.5231C18.6141 16.2051 18.4152 15.7812 18.4152 15.2512ZM16.0083 7.24273C15.9678 6.50745 16.0757 5.87154 16.3319 5.33499C16.5881 4.79844 16.9522 4.36125 17.4241 4.02342C17.9028 3.67897 18.4556 3.42394 19.0827 3.25834C19.7097 3.08611 20.3636 3 21.0446 3C21.9615 3 22.7942 3.14573 23.5425 3.43719C24.2909 3.72203 24.8876 4.15259 25.3325 4.72889C25.7775 5.30518 26 6.02389 26 6.88503C26 7.48782 25.8955 7.98794 25.6865 8.38538C25.4842 8.7762 25.2247 9.10078 24.9078 9.35912C24.5909 9.61746 24.2639 9.8493 23.9268 10.0546C23.529 10.2931 23.2054 10.5051 22.956 10.6906C22.7065 10.8694 22.5245 11.0648 22.4099 11.2768C22.2952 11.4888 22.2379 11.767 22.2379 12.1114V12.5287H18.9006L18.8703 12.2505C18.8029 11.7206 18.8163 11.247 18.9107 10.8297C19.0051 10.4057 19.1838 10.0248 19.4467 9.68701C19.7164 9.34918 20.0737 9.05441 20.5187 8.8027C20.9974 8.53111 21.3783 8.27608 21.6615 8.03762C21.9514 7.79252 22.0964 7.47126 22.0964 7.07381C22.0964 6.80222 22.0357 6.58032 21.9143 6.40809C21.793 6.22924 21.6311 6.09676 21.4289 6.01065C21.2334 5.92453 21.0244 5.88148 20.8019 5.88148C20.5996 5.88148 20.4176 5.91791 20.2558 5.99077C20.1007 6.05701 19.9659 6.15306 19.8512 6.27892C19.7366 6.39815 19.649 6.54057 19.5883 6.70618C19.5344 6.86515 19.504 7.044 19.4973 7.24273H16.0083Z" fill="#F9873A"/>
</svg>
