<svg width="40" height="40" viewBox="0 0 40 40" fill="none" xmlns="http://www.w3.org/2000/svg">
<ellipse opacity="0.2" cx="20" cy="36" rx="19" ry="1" fill="#6B7184"/>
<rect width="5" height="13" rx="1.81818" transform="matrix(-0.707107 -0.707107 -0.707107 0.707107 15 28)" fill="#DF8F75"/>
<rect x="-2.5" y="2.5" width="25" height="25" rx="12.5" transform="matrix(-1 0 0 1 31 3)" stroke="#FFAB73" stroke-width="5"/>
<path opacity="0.15" d="M13.7568 4.8623C13.2657 6.3184 13 7.87821 13 9.5C13 17.5081 19.4919 24 27.5 24C30.4905 24 33.2687 23.0935 35.5771 21.542C33.9853 28.1166 28.0639 33 21 33C12.7157 33 6 26.2843 6 18C6 12.3427 9.13225 7.4174 13.7568 4.8623Z" fill="#D23908"/>
<path d="M16.766 19.331C16.2916 18.8181 16 18.1216 16 17.3544C16 15.778 17.2312 14.5 18.75 14.5C19.2912 14.5 19.7959 14.6623 20.2214 14.9425C20.6685 15.237 21.3315 15.237 21.7786 14.9425C22.2041 14.6623 22.7088 14.5 23.25 14.5C24.7688 14.5 26 15.778 26 17.3544C26 18.1592 25.6791 18.8863 25.1628 19.4052L21.5463 23.2594C21.2454 23.5801 20.7546 23.5802 20.4536 23.2595L16.766 19.331Z" fill="#E27653"/>
</svg>
